2.8Hzlow3min_grf.mot
version=1
nRows=15
nColumns 19
inDegrees=yes
endheader
time	1_ground_force_vx	1_ground_force_vy	1_ground_force_vz	1_ground_force_px	1_ground_force_py	1_ground_force_pz	1_ground_torque_x	1_ground_torque_y	1_ground_torque_z	2_ground_force_vx	2_ground_force_vy	2_ground_force_vz	2_ground_force_px	2_ground_force_py	2_ground_force_pz	2_ground_torque_x	2_ground_torque_y	2_ground_torque_z
            2.502500	            8.722266	           98.814412	           -5.926264	           -0.266329	            0.006372	           -0.441471	            0.017250	            0.195425	           -0.011720	            0.282418	           65.171287	            5.582183	           -0.271071	            0.005401	           -0.668439	            0.003277	            0.756163	            0.064768
            2.503000	            8.585476	           95.389141	           -5.894753	           -0.266049	            0.006377	           -0.442713	            0.010122	            0.112463	           -0.006950	            0.156428	           61.120019	            5.427004	           -0.272793	            0.005375	           -0.663041	            0.002005	            0.783275	            0.069549
            2.503500	            8.541184	           92.503112	           -5.494303	           -0.267534	            0.006371	           -0.441329	            0.004648	            0.050339	           -0.002990	            0.067360	           59.830810	            5.375516	           -0.271770	            0.005382	           -0.663781	            0.000866	            0.768841	            0.069077
            2.504000	            8.633364	           89.799145	           -5.506125	           -0.265965	            0.006376	           -0.442287	            0.009946	            0.103457	           -0.006344	            0.350494	           59.279045	            5.467281	           -0.268498	            0.005403	           -0.666591	            0.003850	            0.651131	            0.060054
            2.504500	            8.496394	           86.734602	           -5.518924	           -0.266287	            0.006380	           -0.443455	            0.013300	            0.135768	           -0.008639	            0.264729	           57.069261	            5.365580	           -0.269462	            0.005395	           -0.665086	            0.002644	            0.569990	            0.053590
            2.505000	            8.634450	           83.850378	           -5.531633	           -0.265048	            0.006384	           -0.444260	            0.020425	            0.198348	           -0.013085	            0.082625	           55.595566	            5.313476	           -0.269730	            0.005395	           -0.665385	            0.000796	            0.535872	            0.051215
            2.505500	            8.451685	           81.146160	           -5.496916	           -0.266645	            0.006378	           -0.442892	            0.021472	            0.206161	           -0.013966	           -0.329822	           53.016803	            5.069816	           -0.269527	            0.005387	           -0.662954	           -0.003720	            0.598003	            0.057185
            2.506000	            8.590505	           78.440826	           -5.187861	           -0.267481	            0.006380	           -0.443441	            0.022229	            0.202979	           -0.013424	           -0.231052	           51.545964	            4.501382	           -0.269424	            0.005386	           -0.662793	           -0.002747	            0.612932	            0.053526
            2.506500	            8.498755	           77.539873	           -5.283210	           -0.264386	            0.006370	           -0.441013	            0.009429	            0.086025	           -0.005861	           -0.455476	           48.784065	            4.163129	           -0.270489	            0.005374	           -0.660507	           -0.006529	            0.699340	            0.059680
            2.507000	            8.637449	           73.032668	           -5.165308	           -0.265901	            0.006390	           -0.445619	            0.017301	            0.146290	           -0.010346	           -0.499729	           48.047804	            4.019736	           -0.267889	            0.005384	           -0.660604	           -0.007124	            0.685004	            0.057308
            2.507500	            8.546026	           71.590525	           -5.171264	           -0.264032	            0.006381	           -0.443522	            0.010906	            0.091360	           -0.006599	           -0.679091	           45.836846	            4.152716	           -0.267035	            0.005380	           -0.658449	           -0.008521	            0.575148	            0.052107
            2.508000	            8.638107	           69.427354	           -5.180767	           -0.264843	            0.006371	           -0.441157	            0.019579	            0.157361	           -0.011743	           -0.441478	           44.916615	            4.243187	           -0.266341	            0.005387	           -0.659798	           -0.004685	            0.476620	            0.045025
            2.508500	            8.410084	           67.262746	           -4.868482	           -0.264076	            0.006372	           -0.441410	            0.016320	            0.130523	           -0.009447	           -0.670431	           43.442750	            4.191102	           -0.265367	            0.005399	           -0.662182	           -0.007467	            0.483826	            0.046677
            2.509000	            8.363985	           64.920463	           -5.153552	           -0.264588	            0.006367	           -0.440175	            0.019398	            0.150563	           -0.011952	           -0.754785	           40.864000	            4.275799	           -0.266267	            0.005379	           -0.657392	           -0.009684	            0.524295	            0.054859
            2.509500	            8.319840	           61.853971	           -4.708020	           -0.266846	            0.006381	           -0.443657	            0.013899	            0.103332	           -0.007865	           -1.031335	           39.574784	            4.036679	           -0.265962	            0.005383	           -0.658408	           -0.014184	            0.544284	            0.055518
